<svg width="206" height="198" viewBox="0 0 206 198" fill="none" xmlns="http://www.w3.org/2000/svg">
<g filter="url(#filter0_bd_1_2)">
<rect x="41" y="25" width="153" height="140" fill="#FFC700" fill-opacity="0.47" shape-rendering="crispEdges"/>
<rect x="40.5" y="24.5" width="154" height="141" stroke="black" stroke-opacity="0.8" shape-rendering="crispEdges"/>
</g>
<g filter="url(#filter1_bi_1_2)">
<path d="M29 37H182V177H29V37Z" fill="white" fill-opacity="0.93"/>
</g>
<g filter="url(#filter2_d_1_2)">
<mask id="path-4-outside-1_1_2" maskUnits="userSpaceOnUse" x="47" y="75" width="54" height="72" fill="black">
<rect fill="white" x="47" y="75" width="54" height="72"/>
<path d="M48.4545 146V76.1818H72.0455C77.5 76.1818 81.9773 77.1136 85.4773 78.9773C88.9773 80.8182 91.5682 83.3523 93.25 86.5795C94.9318 89.8068 95.7727 93.4773 95.7727 97.5909C95.7727 101.705 94.9318 105.352 93.25 108.534C91.5682 111.716 88.9886 114.216 85.5114 116.034C82.0341 117.83 77.5909 118.727 72.1818 118.727H53.0909V111.091H71.9091C75.6364 111.091 78.6364 110.545 80.9091 109.455C83.2045 108.364 84.8636 106.818 85.8864 104.818C86.9318 102.795 87.4545 100.386 87.4545 97.5909C87.4545 94.7955 86.9318 92.3523 85.8864 90.2614C84.8409 88.1705 83.1705 86.5568 80.875 85.4205C78.5795 84.2614 75.5455 83.6818 71.7727 83.6818H56.9091V146H48.4545ZM81.3182 114.636L98.5 146H88.6818L71.7727 114.636H81.3182Z"/>
</mask>
<path d="M48.4545 146V76.1818H72.0455C77.5 76.1818 81.9773 77.1136 85.4773 78.9773C88.9773 80.8182 91.5682 83.3523 93.25 86.5795C94.9318 89.8068 95.7727 93.4773 95.7727 97.5909C95.7727 101.705 94.9318 105.352 93.25 108.534C91.5682 111.716 88.9886 114.216 85.5114 116.034C82.0341 117.83 77.5909 118.727 72.1818 118.727H53.0909V111.091H71.9091C75.6364 111.091 78.6364 110.545 80.9091 109.455C83.2045 108.364 84.8636 106.818 85.8864 104.818C86.9318 102.795 87.4545 100.386 87.4545 97.5909C87.4545 94.7955 86.9318 92.3523 85.8864 90.2614C84.8409 88.1705 83.1705 86.5568 80.875 85.4205C78.5795 84.2614 75.5455 83.6818 71.7727 83.6818H56.9091V146H48.4545ZM81.3182 114.636L98.5 146H88.6818L71.7727 114.636H81.3182Z" fill="black"/>
<path d="M48.4545 146H47.4545V147H48.4545V146ZM48.4545 76.1818V75.1818H47.4545V76.1818H48.4545ZM85.4773 78.9773L85.0073 79.86L85.0118 79.8623L85.4773 78.9773ZM93.25 86.5795L92.3632 87.0417L92.3632 87.0417L93.25 86.5795ZM93.25 108.534L92.3659 108.067L92.3659 108.067L93.25 108.534ZM85.5114 116.034L85.9702 116.923L85.9747 116.92L85.5114 116.034ZM53.0909 118.727H52.0909V119.727H53.0909V118.727ZM53.0909 111.091V110.091H52.0909V111.091H53.0909ZM80.9091 109.455L80.4798 108.551L80.4764 108.553L80.9091 109.455ZM85.8864 104.818L84.998 104.359L84.996 104.363L85.8864 104.818ZM80.875 85.4205L80.4242 86.3131L80.4313 86.3166L80.875 85.4205ZM56.9091 83.6818V82.6818H55.9091V83.6818H56.9091ZM56.9091 146V147H57.9091V146H56.9091ZM81.3182 114.636L82.1952 114.156L81.9106 113.636H81.3182V114.636ZM98.5 146V147H100.188L99.377 145.52L98.5 146ZM88.6818 146L87.8016 146.475L88.0849 147H88.6818V146ZM71.7727 114.636V113.636H70.0975L70.8925 115.111L71.7727 114.636ZM49.4545 146V76.1818H47.4545V146H49.4545ZM48.4545 77.1818H72.0455V75.1818H48.4545V77.1818ZM72.0455 77.1818C77.3946 77.1818 81.696 78.0968 85.0073 79.8599L85.9473 78.0946C82.2585 76.1305 77.6054 75.1818 72.0455 75.1818V77.1818ZM85.0118 79.8623C88.3479 81.6171 90.7837 84.0107 92.3632 87.0417L94.1368 86.1174C92.3527 82.6938 89.6066 80.0193 85.9428 78.0922L85.0118 79.8623ZM92.3632 87.0417C93.9614 90.1086 94.7727 93.617 94.7727 97.5909H96.7727C96.7727 93.3376 95.9022 89.5051 94.1368 86.1174L92.3632 87.0417ZM94.7727 97.5909C94.7727 101.565 93.9613 105.048 92.3659 108.067L94.1341 109.001C95.9023 105.656 96.7727 101.844 96.7727 97.5909H94.7727ZM92.3659 108.067C90.7873 111.053 88.3628 113.415 85.048 115.148L85.9747 116.92C89.6144 115.017 92.3491 112.378 94.1341 109.001L92.3659 108.067ZM85.0526 115.146C81.7608 116.845 77.489 117.727 72.1818 117.727V119.727C77.6928 119.727 82.3074 118.814 85.9702 116.923L85.0526 115.146ZM72.1818 117.727H53.0909V119.727H72.1818V117.727ZM54.0909 118.727V111.091H52.0909V118.727H54.0909ZM53.0909 112.091H71.9091V110.091H53.0909V112.091ZM71.9091 112.091C75.7204 112.091 78.8852 111.535 81.3418 110.356L80.4764 108.553C78.3876 109.556 75.5524 110.091 71.9091 110.091V112.091ZM81.3383 110.358C83.8052 109.185 85.6408 107.495 86.7767 105.273L84.996 104.363C84.0865 106.141 82.6039 107.542 80.4799 108.551L81.3383 110.358ZM86.7747 105.277C87.9084 103.084 88.4545 100.51 88.4545 97.5909H86.4545C86.4545 100.262 85.9552 102.507 84.998 104.359L86.7747 105.277ZM88.4545 97.5909C88.4545 94.6703 87.908 92.0686 86.7808 89.8141L84.9919 90.7086C85.9556 92.636 86.4545 94.9206 86.4545 97.5909H88.4545ZM86.7808 89.8141C85.6286 87.5097 83.7895 85.7474 81.3187 84.5243L80.4313 86.3166C82.5514 87.3662 84.0533 88.8312 84.9919 90.7086L86.7808 89.8141ZM81.3257 84.5278C78.8406 83.2729 75.6345 82.6818 71.7727 82.6818V84.6818C75.4565 84.6818 78.3185 85.2498 80.4243 86.3131L81.3257 84.5278ZM71.7727 82.6818H56.9091V84.6818H71.7727V82.6818ZM55.9091 83.6818V146H57.9091V83.6818H55.9091ZM56.9091 145H48.4545V147H56.9091V145ZM80.4412 115.117L97.623 146.48L99.377 145.52L82.1952 114.156L80.4412 115.117ZM98.5 145H88.6818V147H98.5V145ZM89.562 145.525L72.653 114.162L70.8925 115.111L87.8016 146.475L89.562 145.525ZM71.7727 115.636H81.3182V113.636H71.7727V115.636Z" fill="black" mask="url(#path-4-outside-1_1_2)"/>
</g>
<g filter="url(#filter3_d_1_2)">
<mask id="path-6-outside-2_1_2" maskUnits="userSpaceOnUse" x="123" y="90" width="44" height="56" fill="black">
<rect fill="white" x="123" y="90" width="44" height="56"/>
<path d="M132.409 113.5V145H124.364V92.6364H132.136V100.818H132.818C134.045 98.1591 135.909 96.0227 138.409 94.4091C140.909 92.7727 144.136 91.9545 148.091 91.9545C151.636 91.9545 154.739 92.6818 157.398 94.1364C160.057 95.5682 162.125 97.75 163.602 100.682C165.08 103.591 165.818 107.273 165.818 111.727V145H157.773V112.273C157.773 108.159 156.705 104.955 154.568 102.659C152.432 100.341 149.5 99.1818 145.773 99.1818C143.205 99.1818 140.909 99.7386 138.886 100.852C136.886 101.966 135.307 103.591 134.148 105.727C132.989 107.864 132.409 110.455 132.409 113.5Z"/>
</mask>
<path d="M132.409 113.5V145H124.364V92.6364H132.136V100.818H132.818C134.045 98.1591 135.909 96.0227 138.409 94.4091C140.909 92.7727 144.136 91.9545 148.091 91.9545C151.636 91.9545 154.739 92.6818 157.398 94.1364C160.057 95.5682 162.125 97.75 163.602 100.682C165.08 103.591 165.818 107.273 165.818 111.727V145H157.773V112.273C157.773 108.159 156.705 104.955 154.568 102.659C152.432 100.341 149.5 99.1818 145.773 99.1818C143.205 99.1818 140.909 99.7386 138.886 100.852C136.886 101.966 135.307 103.591 134.148 105.727C132.989 107.864 132.409 110.455 132.409 113.5Z" fill="black"/>
<path d="M132.409 145V146H133.409V145H132.409ZM124.364 145H123.364V146H124.364V145ZM124.364 92.6364V91.6364H123.364V92.6364H124.364ZM132.136 92.6364H133.136V91.6364H132.136V92.6364ZM132.136 100.818H131.136V101.818H132.136V100.818ZM132.818 100.818V101.818H133.458L133.726 101.237L132.818 100.818ZM138.409 94.4091L138.951 95.2493L138.957 95.2458L138.409 94.4091ZM157.398 94.1364L156.918 95.0137L156.924 95.0168L157.398 94.1364ZM163.602 100.682L162.709 101.132L162.711 101.135L163.602 100.682ZM165.818 145V146H166.818V145H165.818ZM157.773 145H156.773V146H157.773V145ZM154.568 102.659L153.833 103.337L153.836 103.34L154.568 102.659ZM138.886 100.852L138.404 99.9763L138.4 99.9786L138.886 100.852ZM134.148 105.727L133.269 105.25L133.269 105.25L134.148 105.727ZM131.409 113.5V145H133.409V113.5H131.409ZM132.409 144H124.364V146H132.409V144ZM125.364 145V92.6364H123.364V145H125.364ZM124.364 93.6364H132.136V91.6364H124.364V93.6364ZM131.136 92.6364V100.818H133.136V92.6364H131.136ZM132.136 101.818H132.818V99.8182H132.136V101.818ZM133.726 101.237C134.873 98.7533 136.608 96.7618 138.951 95.2493L137.867 93.5689C135.21 95.2837 133.218 97.5649 131.91 100.399L133.726 101.237ZM138.957 95.2458C141.249 93.7454 144.269 92.9545 148.091 92.9545V90.9545C144.004 90.9545 140.569 91.8001 137.861 93.5724L138.957 95.2458ZM148.091 92.9545C151.497 92.9545 154.429 93.6523 156.918 95.0137L157.878 93.259C155.048 91.7113 151.775 90.9545 148.091 90.9545V92.9545ZM156.924 95.0168C159.386 96.343 161.316 98.3663 162.709 101.132L164.495 100.232C162.934 97.1337 160.727 94.7934 157.872 93.2559L156.924 95.0168ZM162.711 101.135C164.096 103.862 164.818 107.376 164.818 111.727H166.818C166.818 107.17 166.064 103.32 164.494 100.229L162.711 101.135ZM164.818 111.727V145H166.818V111.727H164.818ZM165.818 144H157.773V146H165.818V144ZM158.773 145V112.273H156.773V145H158.773ZM158.773 112.273C158.773 107.987 157.657 104.51 155.3 101.978L153.836 103.34C155.752 105.399 156.773 108.331 156.773 112.273H158.773ZM155.304 101.981C152.943 99.4202 149.724 98.1818 145.773 98.1818V100.182C149.276 100.182 151.92 101.262 153.833 103.337L155.304 101.981ZM145.773 98.1818C143.055 98.1818 140.591 98.7725 138.404 99.9763L139.369 101.728C141.228 100.705 143.354 100.182 145.773 100.182V98.1818ZM138.4 99.9786C136.224 101.19 134.513 102.958 133.269 105.25L135.027 106.204C136.101 104.224 137.549 102.741 139.373 101.726L138.4 99.9786ZM133.269 105.25C132.013 107.566 131.409 110.329 131.409 113.5H133.409C133.409 110.58 133.965 108.162 135.027 106.204L133.269 105.25Z" fill="black" mask="url(#path-6-outside-2_1_2)"/>
</g>
<g filter="url(#filter4_d_1_2)">
<mask id="path-8-outside-3_1_2" maskUnits="userSpaceOnUse" x="88.4559" y="46.0786" width="62.4364" height="105.615" fill="black">
<rect fill="white" x="88.4559" y="46.0786" width="62.4364" height="105.615"/>
<path d="M139.081 79.2465L136.226 90.1025L96.3399 86.2619L99.194 75.4059L139.081 79.2465ZM91.5705 145.909L112.297 68.4122C113.396 64.0657 115.295 60.5538 117.995 57.8765C120.699 55.1686 123.835 53.2599 127.405 52.1505C130.978 51.0104 134.633 50.6203 138.37 50.9801C141.127 51.2456 143.418 51.6981 145.243 52.3376C147.101 52.9493 148.441 53.4803 149.263 53.9305L143.184 64.5687C142.589 64.3259 141.828 64.0362 140.902 63.6997C139.979 63.3325 138.798 63.0796 137.358 62.941C134.018 62.6195 131.411 63.2033 129.537 64.6924C127.692 66.1844 126.329 68.4648 125.446 71.5335L105.31 147.232L91.5705 145.909Z"/>
</mask>
<path d="M139.081 79.2465L136.226 90.1025L96.3399 86.2619L99.194 75.4059L139.081 79.2465ZM91.5705 145.909L112.297 68.4122C113.396 64.0657 115.295 60.5538 117.995 57.8765C120.699 55.1686 123.835 53.2599 127.405 52.1505C130.978 51.0104 134.633 50.6203 138.37 50.9801C141.127 51.2456 143.418 51.6981 145.243 52.3376C147.101 52.9493 148.441 53.4803 149.263 53.9305L143.184 64.5687C142.589 64.3259 141.828 64.0362 140.902 63.6997C139.979 63.3325 138.798 63.0796 137.358 62.941C134.018 62.6195 131.411 63.2033 129.537 64.6924C127.692 66.1844 126.329 68.4648 125.446 71.5335L105.31 147.232L91.5705 145.909Z" fill="black"/>
<path d="M139.081 79.2465L140.048 79.5008L140.347 78.3638L139.176 78.2511L139.081 79.2465ZM136.226 90.1025L136.131 91.0979L136.977 91.1794L137.194 90.3568L136.226 90.1025ZM96.3399 86.2619L95.3728 86.0076L95.0739 87.1446L96.2441 87.2573L96.3399 86.2619ZM99.194 75.4059L99.2898 74.4105L98.4431 74.329L98.2268 75.1516L99.194 75.4059ZM91.5705 145.909L90.6044 145.651L90.2994 146.791L91.4746 146.904L91.5705 145.909ZM112.297 68.4122L113.263 68.6706L113.266 68.6573L112.297 68.4122ZM117.995 57.8765L118.7 58.5867L118.703 58.583L117.995 57.8765ZM127.405 52.1505L127.702 53.1055L127.709 53.1032L127.405 52.1505ZM145.243 52.3376L144.912 53.2813L144.921 53.2844L144.93 53.2874L145.243 52.3376ZM149.263 53.9305L150.132 54.4267L150.637 53.5425L149.744 53.0534L149.263 53.9305ZM143.184 64.5687L142.806 65.4946L143.617 65.8256L144.052 65.0649L143.184 64.5687ZM140.902 63.6997L140.533 64.6289L140.547 64.6345L140.561 64.6396L140.902 63.6997ZM129.537 64.6924L128.915 63.9093L128.908 63.9149L129.537 64.6924ZM125.446 71.5335L124.485 71.257L124.482 71.2667L124.48 71.2764L125.446 71.5335ZM105.31 147.232L105.214 148.227L106.059 148.309L106.277 147.489L105.31 147.232ZM138.113 78.9923L135.259 89.8483L137.194 90.3568L140.048 79.5008L138.113 78.9923ZM136.322 89.1071L96.4357 85.2665L96.2441 87.2573L136.131 91.0979L136.322 89.1071ZM97.307 86.5161L100.161 75.6602L98.2268 75.1516L95.3728 86.0076L97.307 86.5161ZM99.0981 76.4013L138.985 80.2419L139.176 78.2511L99.2898 74.4105L99.0981 76.4013ZM92.5365 146.167L113.263 68.6706L111.331 68.1539L90.6044 145.651L92.5365 146.167ZM113.266 68.6573C114.329 64.4552 116.15 61.1146 118.7 58.5867L117.291 57.1664C114.44 59.993 112.462 63.6762 111.327 68.1671L113.266 68.6573ZM118.703 58.583C121.295 55.9873 124.291 54.1655 127.702 53.1054L127.108 51.1955C123.38 52.3544 120.103 54.35 117.288 57.17L118.703 58.583ZM127.709 53.1032C131.153 52.0043 134.672 51.6286 138.274 51.9755L138.466 49.9848C134.594 49.6119 130.803 50.0165 127.101 51.1978L127.709 53.1032ZM138.274 51.9755C140.983 52.2363 143.188 52.6772 144.912 53.2813L145.573 51.3939C143.648 50.7191 141.272 50.2549 138.466 49.9848L138.274 51.9755ZM144.93 53.2874C146.778 53.896 148.045 54.4039 148.783 54.8077L149.744 53.0534C148.836 52.5568 147.423 52.0027 145.555 51.3877L144.93 53.2874ZM148.395 53.4344L142.316 64.0725L144.052 65.0649L150.132 54.4267L148.395 53.4344ZM143.562 63.6428C142.95 63.3933 142.176 63.0987 141.244 62.7598L140.561 64.6396C141.48 64.9737 142.227 65.2585 142.806 65.4946L143.562 63.6428ZM141.272 62.7705C140.231 62.3566 138.949 62.0896 137.454 61.9456L137.262 63.9364C138.646 64.0697 139.727 64.3085 140.533 64.6289L141.272 62.7705ZM137.454 61.9456C133.961 61.6093 131.062 62.204 128.915 63.9093L130.159 65.4754C131.761 64.2025 134.076 63.6296 137.262 63.9364L137.454 61.9456ZM128.908 63.9149C126.857 65.5738 125.405 68.0582 124.485 71.257L126.407 71.81C127.252 68.8714 128.528 66.795 130.166 65.4698L128.908 63.9149ZM124.48 71.2764L104.344 146.975L106.277 147.489L126.412 71.7905L124.48 71.2764ZM105.406 146.236L91.6663 144.914L91.4746 146.904L105.214 148.227L105.406 146.236Z" fill="black" mask="url(#path-8-outside-3_1_2)"/>
</g>
<defs>
<filter id="filter0_bd_1_2" x="30" y="14" width="175" height="162" filterUnits="userSpaceOnUse" color-interpolation-filters="sRGB">
<feFlood flood-opacity="0" result="BackgroundImageFix"/>
<feGaussianBlur in="BackgroundImageFix" stdDeviation="5"/>
<feComposite in2="SourceAlpha" operator="in" result="effect1_backgroundBlur_1_2"/>
<feColorMatrix in="SourceAlpha" type="matrix" values="0 0 0 0 0 0 0 0 0 0 0 0 0 0 0 0 0 0 127 0" result="hardAlpha"/>
<feOffset dy="4"/>
<feGaussianBlur stdDeviation="2"/>
<feComposite in2="hardAlpha" operator="out"/>
<feColorMatrix type="matrix" values="0 0 0 0 0 0 0 0 0 0 0 0 0 0 0 0 0 0 0.25 0"/>
<feBlend mode="normal" in2="effect1_backgroundBlur_1_2" result="effect2_dropShadow_1_2"/>
<feBlend mode="normal" in="SourceGraphic" in2="effect2_dropShadow_1_2" result="shape"/>
</filter>
<filter id="filter1_bi_1_2" x="-11" y="-3" width="233" height="220" filterUnits="userSpaceOnUse" color-interpolation-filters="sRGB">
<feFlood flood-opacity="0" result="BackgroundImageFix"/>
<feGaussianBlur in="BackgroundImageFix" stdDeviation="20"/>
<feComposite in2="SourceAlpha" operator="in" result="effect1_backgroundBlur_1_2"/>
<feBlend mode="normal" in="SourceGraphic" in2="effect1_backgroundBlur_1_2" result="shape"/>
<feColorMatrix in="SourceAlpha" type="matrix" values="0 0 0 0 0 0 0 0 0 0 0 0 0 0 0 0 0 0 127 0" result="hardAlpha"/>
<feOffset dy="4"/>
<feGaussianBlur stdDeviation="1"/>
<feComposite in2="hardAlpha" operator="arithmetic" k2="-1" k3="1"/>
<feColorMatrix type="matrix" values="0 0 0 0 0 0 0 0 0 0 0 0 0 0 0 0 0 0 0.25 0"/>
<feBlend mode="normal" in2="shape" result="effect2_innerShadow_1_2"/>
</filter>
<filter id="filter2_d_1_2" x="44.4545" y="72.1818" width="58.0455" height="77.8182" filterUnits="userSpaceOnUse" color-interpolation-filters="sRGB">
<feFlood flood-opacity="0" result="BackgroundImageFix"/>
<feColorMatrix in="SourceAlpha" type="matrix" values="0 0 0 0 0 0 0 0 0 0 0 0 0 0 0 0 0 0 127 0" result="hardAlpha"/>
<feOffset/>
<feGaussianBlur stdDeviation="2"/>
<feComposite in2="hardAlpha" operator="out"/>
<feColorMatrix type="matrix" values="0 0 0 0 0.833333 0 0 0 0 0.833333 0 0 0 0 0.833333 0 0 0 0.25 0"/>
<feBlend mode="normal" in2="BackgroundImageFix" result="effect1_dropShadow_1_2"/>
<feBlend mode="normal" in="SourceGraphic" in2="effect1_dropShadow_1_2" result="shape"/>
</filter>
<filter id="filter3_d_1_2" x="120.364" y="87.9545" width="49.4545" height="61.0455" filterUnits="userSpaceOnUse" color-interpolation-filters="sRGB">
<feFlood flood-opacity="0" result="BackgroundImageFix"/>
<feColorMatrix in="SourceAlpha" type="matrix" values="0 0 0 0 0 0 0 0 0 0 0 0 0 0 0 0 0 0 127 0" result="hardAlpha"/>
<feOffset/>
<feGaussianBlur stdDeviation="2"/>
<feComposite in2="hardAlpha" operator="out"/>
<feColorMatrix type="matrix" values="0 0 0 0 0.831373 0 0 0 0 0.831373 0 0 0 0 0.831373 0 0 0 0.25 0"/>
<feBlend mode="normal" in2="BackgroundImageFix" result="effect1_dropShadow_1_2"/>
<feBlend mode="normal" in="SourceGraphic" in2="effect1_dropShadow_1_2" result="shape"/>
</filter>
<filter id="filter4_d_1_2" x="86.6055" y="43.2944" width="66.8393" height="111.274" filterUnits="userSpaceOnUse" color-interpolation-filters="sRGB">
<feFlood flood-opacity="0" result="BackgroundImageFix"/>
<feColorMatrix in="SourceAlpha" type="matrix" values="0 0 0 0 0 0 0 0 0 0 0 0 0 0 0 0 0 0 127 0" result="hardAlpha"/>
<feOffset/>
<feGaussianBlur stdDeviation="2"/>
<feComposite in2="hardAlpha" operator="out"/>
<feColorMatrix type="matrix" values="0 0 0 0 0.831373 0 0 0 0 0.831373 0 0 0 0 0.831373 0 0 0 0.25 0"/>
<feBlend mode="normal" in2="BackgroundImageFix" result="effect1_dropShadow_1_2"/>
<feBlend mode="normal" in="SourceGraphic" in2="effect1_dropShadow_1_2" result="shape"/>
</filter>
</defs>
</svg>
